HIERARCHY
ROOT hip
{
  OFFSET 0 0 0
  CHANNELS 6 Xposition Yposition Zposition Zrotation Yrotation Xrotation
  JOINT abdomen
  {
    OFFSET 0 20.6881 -0.73152
    CHANNELS 3 Zrotation Xrotation Yrotation
    JOINT chest
    {
      OFFSET 0 11.7043 -0.48768
      CHANNELS 3 Zrotation Xrotation Yrotation
      JOINT neck
      {
        OFFSET 0 22.1894 -2.19456
        CHANNELS 3 Zrotation Xrotation Yrotation
        JOINT head
        {
          OFFSET -0.24384 7.07133 1.2192
          CHANNELS 3 Zrotation Xrotation Yrotation
          JOINT leftEye
          {
            OFFSET 4.14528 8.04674 8.04672
            CHANNELS 3 Zrotation Xrotation Yrotation
            End Site
            {
              OFFSET 1 0 0
            }
          }
          JOINT rightEye
          {
            OFFSET -3.6576 8.04674 8.04672
            CHANNELS 3 Zrotation Xrotation Yrotation
            End Site
            {
              OFFSET 1 0 0
            }
          }
        }
      }
      JOINT rCollar
      {
        OFFSET -2.68224 19.2634 -4.8768
        CHANNELS 3 Zrotation Xrotation Yrotation
        JOINT rShldr
        {
          OFFSET -8.77824 -1.95073 1.46304
          CHANNELS 3 Zrotation Xrotation Yrotation
          JOINT rForeArm
          {
            OFFSET -28.1742 -1.7115 0.48768
            CHANNELS 3 Zrotation Xrotation Yrotation
            JOINT rHand
            {
              OFFSET -22.5879 0.773209 7.07136
              CHANNELS 3 Zrotation Xrotation Yrotation
              JOINT rThumb1
              {
                OFFSET -1.2192 -0.487915 3.41376
                CHANNELS 3 Zrotation Xrotation Yrotation
                JOINT rThumb2
                {
                  OFFSET -3.37035 -0.52449 3.41376
                  CHANNELS 3 Zrotation Xrotation Yrotation
                  End Site
                  {
                    OFFSET -1.78271 -1.18214 1.43049
                  }
                }
              }
              JOINT rIndex1
              {
                OFFSET -7.75947 0.938293 5.60832
                CHANNELS 3 Zrotation Xrotation Yrotation
                JOINT rIndex2
                {
                  OFFSET -2.54057 -0.884171 1.56538
                  CHANNELS 3 Zrotation Xrotation Yrotation
                  End Site
                  {
                    OFFSET -1.62519 -0.234802 1.16502
                  }
                }
              }
              JOINT rMid1
              {
                OFFSET -8.24714 1.18213 3.41376
                CHANNELS 3 Zrotation Xrotation Yrotation
                JOINT rMid2
                {
                  OFFSET -3.10165 -0.590103 1.0647
                  CHANNELS 3 Zrotation Xrotation Yrotation
                  End Site
                  {
                    OFFSET -2.48547 -0.328903 0.83742
                  }
                }
              }
              JOINT rRing1
              {
                OFFSET -8.82822 0.546677 1.51678
                CHANNELS 3 Zrotation Xrotation Yrotation
                JOINT rRing2
                {
                  OFFSET -2.60934 -0.819778 -0.0198488
                  CHANNELS 3 Zrotation Xrotation Yrotation
                  End Site
                  {
                    OFFSET -2.33842 -0.294052 0.168128
                  }
                }
              }
              JOINT rPinky1
              {
                OFFSET -8.27202 -0.0477905 -0.4584
                CHANNELS 3 Zrotation Xrotation Yrotation
                JOINT rPinky2
                {
                  OFFSET -1.82734 -0.647385 -0.700984
                  CHANNELS 3 Zrotation Xrotation Yrotation
                  End Site
                  {
                    OFFSET -1.69225 -0.51767 -0.607171
                  }
                }
              }
            }
          }
        }
      }
      JOINT lCollar
      {
        OFFSET 2.68224 19.2634 -4.8768
        CHANNELS 3 Zrotation Xrotation Yrotation
        JOINT lShldr
        {
          OFFSET 8.77824 -1.95073 1.46304
          CHANNELS 3 Zrotation Xrotation Yrotation
          JOINT lForeArm
          {
            OFFSET 28.1742 -1.7115 0.48768
            CHANNELS 3 Zrotation Xrotation Yrotation
            JOINT lHand
            {
              OFFSET 22.5879 0.773209 7.07136
              CHANNELS 3 Zrotation Xrotation Yrotation
              JOINT lThumb1
              {
                OFFSET 1.2192 -0.487915 3.41376
                CHANNELS 3 Zrotation Xrotation Yrotation
                JOINT lThumb2
                {
                  OFFSET 3.37035 -0.52449 3.41376
                  CHANNELS 3 Zrotation Xrotation Yrotation
                  End Site
                  {
                    OFFSET 1.78271 -1.18214 1.43049
                  }
                }
              }
              JOINT lIndex1
              {
                OFFSET 7.75947 0.938293 5.60832
                CHANNELS 3 Zrotation Xrotation Yrotation
                JOINT lIndex2
                {
                  OFFSET 2.54057 -0.884171 1.56538
                  CHANNELS 3 Zrotation Xrotation Yrotation
                  End Site
                  {
                    OFFSET 1.62519 -0.234802 1.16502
                  }
                }
              }
              JOINT lMid1
              {
                OFFSET 8.24714 1.18213 3.41376
                CHANNELS 3 Zrotation Xrotation Yrotation
                JOINT lMid2
                {
                  OFFSET 3.10165 -0.590103 1.0647
                  CHANNELS 3 Zrotation Xrotation Yrotation
                  End Site
                  {
                    OFFSET 2.48547 -0.328903 0.83742
                  }
                }
              }
              JOINT lRing1
              {
                OFFSET 8.82822 0.546677 1.51678
                CHANNELS 3 Zrotation Xrotation Yrotation
                JOINT lRing2
                {
                  OFFSET 2.60934 -0.819778 -0.0198488
                  CHANNELS 3 Zrotation Xrotation Yrotation
                  End Site
                  {
                    OFFSET 2.33842 -0.294052 0.168128
                  }
                }
              }
              JOINT lPinky1
              {
                OFFSET 8.27202 -0.0477905 -0.4584
                CHANNELS 3 Zrotation Xrotation Yrotation
                JOINT lPinky2
                {
                  OFFSET 1.82734 -0.647385 -0.700984
                  CHANNELS 3 Zrotation Xrotation Yrotation
                  End Site
                  {
                    OFFSET 1.69225 -0.51767 -0.607171
                  }
                }
              }
            }
          }
        }
      }
    }
  }
  JOINT rButtock
  {
    OFFSET -8.77824 4.35084 1.2192
    CHANNELS 3 Zrotation Xrotation Yrotation
    JOINT rThigh
    {
      OFFSET 0 -1.70687 -2.19456
      CHANNELS 3 Zrotation Xrotation Yrotation
      JOINT rShin
      {
        OFFSET 0 -36.8199 0.73152
        CHANNELS 3 Zrotation Xrotation Yrotation
        JOINT rFoot
        {
          OFFSET 0.73152 -45.1104 -5.12064
          CHANNELS 3 Zrotation Xrotation Yrotation
          End Site
          {
            OFFSET -1.1221 -3.69964 12.103
          }
        }
      }
    }
  }
  JOINT lButtock
  {
    OFFSET 8.77824 4.35084 1.2192
    CHANNELS 3 Zrotation Xrotation Yrotation
    JOINT lThigh
    {
      OFFSET 0 -1.70687 -2.19456
      CHANNELS 3 Zrotation Xrotation Yrotation
      JOINT lShin
      {
        OFFSET 0 -36.8199 0.73152
        CHANNELS 3 Zrotation Xrotation Yrotation
        JOINT lFoot
        {
          OFFSET -0.73152 -45.1104 -5.12064
          CHANNELS 3 Zrotation Xrotation Yrotation
          End Site
          {
            OFFSET 1.1221 -3.69964 12.103
          }
        }
      }
    }
  }
}
MOTION
Frames:	7
Frame Time:	0.03333
0.7988999999999999 44.1896 -2.1117 -176.933183 46.923652 -172.570931 -1.464293 10.949092 -147.690603 6.898376 7.074585 173.552556 9.331584 18.393656 65.142058 -23.868892 -4.927587 -28.56869 0.001117 0.0 0.000289 0.001117 0.0 0.000289 -9.411017 34.308248 10.938331 45.62969 -6.597599 60.932482 -9.116668 9.349775 111.123861 -4.106365 22.221071 1.388733 14.769706 -14.679271 -0.376293 -128.29932 -12.177875 115.431884 -154.300071 -22.64729 121.952307 -125.063062 40.777576 101.910371 8.80203 -27.640399 -3.146351 7.530719 -13.496073 -1.270294 -145.106067 -0.986495 -178.817868 -153.554534 -16.650631 -176.850637 -135.640257 -12.250325 -133.014655 -160.986337 53.986722 -146.962399 -3.448961 -62.73201 13.27028 124.28159 -9.949375 153.0251 -10.546411 0.253586 147.745522 163.894924 17.216288 -137.68606 -0.105346 -0.104106 0.015162 140.209197 -45.418617 -119.800463 159.594925 -32.275182 -122.682512 -12.977829 -0.334869 9.831882 -36.678121 -72.131176 -11.053287 21.379137 45.470336 -17.233926 145.124193 1.721641 179.670176 -11.096485 14.177335 7.323747 111.555856 -40.839979 109.605587 -7.790652 12.717259 -2.007811 0.001524 0.001051 0.001331 -67.474132 -44.289636 44.567662 111.079384 -1.56163 149.38978 147.964277 -45.515709 -139.589166 0.003188 0.000338 0.000718 82.285438 -53.507171 -1.211346 -109.988551 31.932747 -155.40641 -66.212291 83.003642 -48.455611
0.6769 43.9054 -2.0746 -176.789563 46.944079 -172.362447 -0.803183 11.874383 -122.843902 10.369143 3.282346 148.688868 -9.478398 28.588977 -102.907629 30.993104 20.724079 138.42278 -0.002163 -0.0 0.002033 -0.001868 -0.0 0.003758 -154.793213 0.883943 160.877788 142.803987 12.795992 -160.050339 -67.260231 -30.423838 124.028281 38.007745 -57.311422 27.271839 178.544504 -18.829672 89.025133 -83.146223 12.988545 28.070867 7.749064 -13.498537 -3.712426 -115.072616 36.771002 91.332365 109.500115 -81.470717 79.455496 177.440621 -52.767471 139.804096 -145.111531 -0.645285 -178.925733 -145.537479 -49.619763 -167.917304 -21.009079 -34.217062 -20.161586 -6.196526 -20.667571 -8.527222 159.217174 -47.329208 -170.264667 -128.288061 48.388139 132.299877 -177.370659 25.380947 -33.205748 164.292847 16.037784 -138.05862 168.560129 -6.241349 -89.892415 6.802517 -48.559876 -7.818782 -1.58271 -2.610562 0.869746 168.469863 -23.678152 -109.236356 167.765186 -29.219589 -145.307853 -13.692038 -31.148764 0.922028 145.117483 2.813439 -179.987858 151.991109 -28.451418 174.635412 -4.59471 13.360562 -4.154706 161.146042 59.493932 150.05432 0.000967 0.002103 0.000403 -66.619856 -46.308329 -159.705775 -114.8238 -18.198958 -67.083862 -142.747285 31.949991 -124.156963 -0.000496 -0.001198 -0.000962 82.213323 -53.647069 26.111565 -113.640511 58.515064 171.269627 -36.215551 2.373129 -62.769335
0.557 43.621500000000005 -2.0367 -176.766523 47.001683 -172.232766 -1.979865 11.086819 -158.703907 4.990846 8.336426 -175.520548 11.290673 23.43286 94.722056 -28.735576 9.240535 -54.800801 -0.004716 0.0 -0.004025 0.00081 0.0 0.00153 -159.068365 -55.339468 172.139949 -105.578478 -35.34378 -110.471042 -135.236528 -86.000503 -31.212788 -7.619028 32.293035 2.162049 123.194201 -48.835181 61.680719 -168.585367 -23.331642 120.882903 -152.235941 -18.803059 121.407382 -93.232557 55.564845 74.334201 -124.319678 50.645693 114.046251 -3.366386 17.901628 3.726909 0.001896 0.302708 0.094267 -156.596807 -31.159337 175.508048 7.804475 24.363779 6.900235 -3.715223 -13.885811 -5.142082 3.269277 15.981197 -4.058197 -42.430664 20.756741 -33.710621 21.344801 -68.310566 -90.613212 6.570017 -24.879869 5.887338 144.583327 16.018509 -84.121958 136.970812 -3.735537 -67.258818 -115.891014 -76.225187 -64.400473 -162.416967 -59.501053 -95.556014 165.735254 -22.812262 -145.000497 157.736955 11.006328 -140.549646 145.111359 -0.730905 178.89758 -11.846094 56.255015 2.140121 141.356792 0.982912 138.37016 -3.30724 1.990126 1.358325 0.515569 0.002015 0.403611 -69.666789 -44.121815 38.18692 107.776798 4.674819 -173.392208 51.438521 33.548222 61.130996 0.001379 -0.0014 -9.6e-05 83.963543 -55.829159 175.104491 111.4874 -25.779909 28.586702 -50.862849 -33.160679 -126.301481
0.4439 43.3327 -1.9763 -176.647083 47.036015 -172.041626 -2.572494 11.082207 -174.551312 1.732571 9.303051 -159.562746 5.810785 33.01338 161.193294 -12.879376 37.263569 -118.357673 0.000712 0.0 0.000225 0.000712 0.0 0.000225 -159.201157 -45.934285 169.970417 -148.7814 -20.625543 -128.384563 160.036404 57.127776 55.272203 168.030227 -15.500095 145.028279 2.042832 -2.025677 -0.278206 -16.291663 15.986768 12.96071 30.076895 -50.481956 -3.920522 173.808785 -48.799738 101.811206 -151.017316 18.837522 137.199047 -0.609074 10.832256 2.157458 -0.000134 -0.0563 -0.017484 11.573734 -32.115488 -3.850796 -21.519714 -34.691176 -20.6621 -155.210525 42.199808 -148.730198 156.706815 -12.199293 -163.598285 28.293194 33.096382 12.954551 58.922164 48.87263 -178.584844 -4.726033 -57.847078 5.036949 0.652449 0.642902 -0.103179 141.863094 -48.250664 -119.715873 -13.801532 -24.727703 5.465673 -2.351021 16.338685 -2.674914 149.878034 21.208796 -136.339939 164.531015 -8.842241 -143.369305 145.031995 -4.409877 177.737788 154.39427 -7.136888 178.296319 22.209546 -35.317946 21.33431 126.488791 -30.88134 125.482757 -0.005012 0.000624 -0.004604 -68.750006 -46.674952 -179.70613 -118.758734 -37.493324 -44.92 36.177699 7.839193 107.612804 -179.980565 75.750911 -0.017994 -145.509041 -8.874457 88.216969 111.849086 -15.208959 41.107395 -50.016681 -11.35872 -131.369089
0.3491 43.0314 -1.941 -176.246458 47.049967 -171.631935 -2.263427 11.28318 -171.836848 2.28468 9.269675 -162.486353 -0.975907 14.464914 4.746701 3.759575 -21.10065 35.352447 0.001254 -0.0 -0.000548 0.001254 -0.0 -0.000548 -155.904938 -6.214393 162.40316 -42.746506 -13.383969 -29.036467 -96.359259 37.10111 -62.607758 55.706128 -64.359515 43.671232 -2.058738 2.021026 0.351376 31.107791 -48.986814 -16.373018 -3.479257 5.420095 2.073733 -3.789166 18.999069 4.805091 3.290584 -10.021777 -1.614821 -12.205436 34.622256 9.683026 0.002186 0.387824 0.122309 -155.758969 -6.118107 172.591905 4.036635 11.587474 3.663805 9.486668 23.470103 5.65054 12.455912 -82.429514 33.128868 97.319299 -42.536202 122.089179 -162.455805 -0.818035 63.583425 18.722414 14.480019 -1.395388 -175.188959 -21.874637 -88.336111 -68.677935 -75.119444 -51.420471 75.270605 43.186698 -62.379628 5.514509 17.442942 0.01062 159.462614 -2.980518 -142.648566 113.824528 59.009926 -104.190711 0.007034 -0.747719 0.235738 150.068318 -74.540157 173.227831 -12.327476 41.724186 -10.332133 -6.220475 13.558215 -3.304369 -179.998608 75.749212 -0.000392 140.173308 3.899405 -74.83451 -101.757046 4.294078 95.782809 16.06792 -32.53718 -7.553572 0.001018 0.00043 0.000101 86.596868 -53.564171 -2.32931 -112.813943 17.103677 -56.524454 -147.375455 14.244634 -151.644868
0.2429 42.7847 -1.8870000000000002 -176.168674 47.079623 -171.523651 -1.4513 16.045597 -22.409048 3.991333 -13.655455 48.466217 10.312729 20.872214 78.383081 -28.029904 0.496227 -39.863096 0.001168 -0.0 -0.000915 0.001168 -0.0 -0.000915 -140.513915 43.489788 144.783378 -29.093905 -53.528629 20.196218 150.159854 68.568904 66.915073 167.811561 -16.242962 144.866229 51.718781 -41.50666 13.228346 -13.876301 -12.096588 -18.854395 -10.580414 15.023911 6.871867 -2.375208 16.075708 3.45278 -12.964241 29.197073 9.249707 -160.449711 3.323256 142.285714 -145.111931 -0.513393 -178.967952 11.313058 14.715243 -7.268928 -0.250915 -0.658749 -0.234181 -55.333468 -53.856093 -55.341288 148.742235 -79.814025 172.588976 -113.761601 53.784964 96.284856 -156.725847 48.516076 -48.639351 157.623357 30.088584 -132.347374 -25.221504 -24.236015 -1.619525 43.72709 32.515025 -26.647732 27.752748 30.862135 -20.375989 9.266467 22.156202 -5.221694 16.136721 33.970972 -11.898186 15.738073 39.714516 -12.682338 0.000183 2.847451 -0.893685 -9.977852 1.664122 -0.143565 -23.951698 76.655505 -11.935711 55.425121 -52.834169 54.524697 -179.977904 75.749174 -0.018133 137.900047 3.186753 91.27003 115.091639 11.366328 115.668679 -157.362827 13.837382 -127.47165 -179.992062 75.749864 -0.00521 -145.180677 -10.104371 80.865201 113.702911 -5.400151 68.052311 -122.607922 -17.20779 179.58247
0.1623 42.5078 -1.8699000000000001 -175.948546 47.122719 -171.269919 -1.319073 16.235405 -21.39684 3.527723 -13.840933 47.241466 -10.624525 25.919615 -84.774119 34.028949 12.237232 122.994226 -0.000401 -0.0 0.000505 -0.000401 -0.0 0.000505 -159.201582 -45.884009 169.958259 52.642478 40.551238 -64.383714 -35.950722 -49.796196 -177.433439 138.881969 -56.957411 122.334484 -25.209309 21.52233 8.541065 -45.991469 17.706378 48.181722 -102.671594 36.96564 86.774874 -168.819403 -18.656896 115.651893 65.518277 -79.774825 37.292809 -166.112972 -12.837082 143.822247 -145.114786 -0.111661 -179.095636 -130.38387 -67.579722 -152.301836 -149.619602 27.418549 -145.604432 -38.591927 -47.220857 -39.061872 2.701316 13.636462 -3.38429 154.155358 -50.301795 -135.39682 29.317303 85.407832 -145.927955 9.424099 -13.839301 4.616784 152.805906 9.033181 -87.07697 -33.257541 -55.092065 -30.586295 22.944068 27.336446 -16.4077 -136.308505 -59.283157 -78.936856 16.226848 34.093972 -11.975633 158.417801 8.953962 -141.307835 0.01356 -1.372642 0.43107 -11.395604 -18.344849 2.235846 -8.380132 26.461556 -7.369846 29.741525 -44.605873 29.81898 0.008029 -0.001247 0.00587 -72.087844 -45.836052 84.597957 123.934653 -53.024917 32.31211 172.35539 60.105252 92.601414 0.000322 -0.001247 -0.000124 88.696955 -55.748343 178.830581 102.507969 -18.568509 -112.21713 51.319684 -1.253212 21.352222
